<svg width="228" height="73" viewBox="0 0 228 73" fill="none" xmlns="http://www.w3.org/2000/svg">
<g filter="url(#filter0_d_424_22)">
<mask id="path-1-outside-1_424_22" maskUnits="userSpaceOnUse" x="3.08032" y="-0.669922" width="221" height="66" fill="black">
<rect fill="white" x="3.08032" y="-0.669922" width="221" height="66"/>
<path d="M17.6903 48.0001C16.5203 48.0001 15.3937 47.7617 14.3103 47.2851C13.227 46.7651 12.2737 45.8334 11.4503 44.4901C10.6703 43.1467 10.0637 41.2401 9.63032 38.7701C9.54366 38.2934 9.45699 37.7734 9.37032 37.2101C9.28366 36.6467 9.15366 35.8234 8.98032 34.7401C8.80699 33.6134 8.56866 32.0101 8.26532 29.9301C7.96199 27.8067 7.55032 24.9901 7.03032 21.4801C6.51032 17.9701 5.86032 13.5284 5.08032 8.15508L11.1253 1.33008L11.9053 1.65508C12.252 5.85841 12.577 9.88841 12.8803 13.7451C13.1837 17.5584 13.4653 21.0251 13.7253 24.1451C13.9853 27.2217 14.2237 29.8434 14.4403 32.0101C14.657 34.1334 14.852 35.6068 15.0253 36.4301C15.242 37.5568 15.502 38.2284 15.8053 38.4451C16.1087 38.6618 16.4987 38.7268 16.9753 38.6401C17.4953 38.5101 18.1237 38.5534 18.8603 38.7701C19.727 38.9867 20.377 39.4417 20.8103 40.1351C21.2437 40.7851 21.4603 41.9334 21.4603 43.5801C21.4603 45.1834 21.2003 46.3318 20.6803 47.0251C20.1603 47.6751 19.1637 48.0001 17.6903 48.0001Z"/>
<path d="M29.5853 33.8951C29.5853 31.6417 30.0187 29.6051 30.8853 27.7851C31.752 25.9651 32.6187 24.6217 33.4853 23.7551L34.6553 24.1451C34.4387 26.9184 34.6337 29.4101 35.2403 31.6201C35.8903 33.8301 36.9737 35.5851 38.4903 36.8851C40.0503 38.1417 42.087 38.7701 44.6003 38.7701H44.9253C45.792 38.7701 46.507 39.1167 47.0703 39.8101C47.6337 40.5034 47.9153 41.3484 47.9153 42.3451V44.2951C47.9153 45.3784 47.6337 46.2667 47.0703 46.9601C46.507 47.6534 45.792 48.0001 44.9253 48.0001H43.3003C41.307 48.0001 39.422 47.5884 37.6453 46.7651C35.912 45.8984 34.417 44.7501 33.1603 43.3201C31.687 45.2701 29.6937 46.5484 27.1803 47.1551C24.667 47.7184 21.8937 48.0001 18.8603 48.0001C17.387 48.0001 16.2603 47.5234 15.4803 46.5701C14.7003 45.6168 14.3103 44.5767 14.3103 43.4501C14.267 42.2801 14.6353 41.2184 15.4153 40.2651C16.152 39.2684 17.3003 38.7701 18.8603 38.7701C20.8103 38.7701 22.782 38.7268 24.7753 38.6401C26.812 38.5101 28.5887 38.2067 30.1053 37.7301C29.7587 36.4734 29.5853 35.1951 29.5853 33.8951ZM29.3253 18.1001C28.502 17.1467 27.657 16.2584 26.7903 15.4351C25.9237 14.5684 25.0137 13.7234 24.0603 12.9001V12.4451L29.2603 7.24508H29.7153C30.6253 8.02508 31.5137 8.82675 32.3803 9.65008C33.247 10.4734 34.092 11.3834 34.9153 12.3801V12.8351L29.7803 18.1001H29.3253Z"/>
<path d="M60.475 18.2301C61.8617 19.9201 62.9884 21.8267 63.855 23.9501C64.7217 26.0301 65.35 28.1317 65.74 30.2551C66.13 32.3351 66.3251 34.2634 66.3251 36.0401C66.3251 38.3368 65.9567 40.1784 65.2201 41.5651C64.5267 42.9517 63.2917 44.1217 61.515 45.0751C59.7384 46.0284 57.8534 46.7217 55.86 47.1551C53.91 47.5451 52.0034 47.7834 50.14 47.8701C48.2767 47.9567 46.6517 48.0001 45.265 48.0001C43.965 48.0001 42.9034 47.5234 42.08 46.5701C41.2134 45.5734 40.78 44.4901 40.78 43.3201C40.78 42.1934 41.2134 41.1534 42.08 40.2001C42.9034 39.2467 43.965 38.7701 45.265 38.7701C47.3017 38.7701 49.425 38.7268 51.635 38.6401C53.845 38.5534 55.9034 38.4017 57.81 38.1851C59.7167 37.9684 61.2117 37.6651 62.295 37.2751C62.295 36.2784 62.0134 35.1734 61.45 33.9601C60.8867 32.7467 60.15 31.5551 59.24 30.3851C58.3734 29.2151 57.4417 28.2617 56.445 27.5251L59.565 18.2301H60.475ZM55.795 63.3401C54.9717 62.3868 54.1267 61.4768 53.26 60.6101C52.3934 59.7868 51.4834 58.9634 50.53 58.1401V57.6851L55.73 52.4851H56.185C57.095 53.2651 57.9834 54.0667 58.85 54.8901C59.7167 55.7134 60.5617 56.6234 61.385 57.6201V58.0751L56.25 63.3401H55.795Z"/>
<path d="M131.818 38.7701C132.684 38.7701 133.334 39.2467 133.768 40.2001C134.201 41.1101 134.418 42.1284 134.418 43.2551C134.418 44.4684 134.201 45.5734 133.768 46.5701C133.378 47.5234 132.728 48.0001 131.818 48.0001C130.864 48.0001 129.933 47.9134 129.023 47.7401C128.156 47.5234 127.354 47.1767 126.618 46.7001C126.488 47.9134 126.293 48.9967 126.033 49.9501C125.816 50.9467 125.534 51.8134 125.188 52.5501C122.371 55.7568 119.316 58.0751 116.023 59.5051C112.729 60.9784 109.544 61.7151 106.468 61.7151C103.088 61.7151 100.163 61.0434 97.6926 59.7001C95.266 58.4001 93.381 56.6234 92.0376 54.3701C90.6943 52.1168 90.0226 49.5601 90.0226 46.7001C90.0226 43.3201 91.0193 39.8318 93.0126 36.2351L94.5726 36.7551C93.9226 39.9617 94.096 42.8651 95.0926 45.4651C96.1326 48.0651 97.8443 50.1017 100.228 51.5751C102.654 53.0917 105.558 53.8501 108.938 53.8501C111.364 53.8501 113.834 53.3518 116.348 52.3551C118.861 51.4018 121.244 49.9067 123.498 47.8701C123.411 46.6134 123.281 45.2267 123.108 43.7101C122.978 42.1501 122.804 40.5034 122.588 38.7701C122.458 37.5567 122.263 35.8451 122.003 33.6351C121.743 31.4251 121.418 28.9117 121.028 26.0951C120.638 23.2784 120.183 20.3317 119.663 17.2551C119.186 14.1784 118.644 11.1451 118.038 8.15508L124.083 1.33008L124.798 1.78508C125.274 6.03175 125.686 10.1051 126.033 14.0051C126.379 17.8617 126.683 21.3501 126.943 24.4701C127.203 27.5901 127.398 30.2117 127.528 32.3351C127.701 34.4151 127.831 35.8017 127.918 36.4951C128.134 37.5351 128.524 38.1851 129.088 38.4451C129.694 38.6618 130.604 38.7701 131.818 38.7701Z"/>
<path d="M149.854 38.7701C151.804 35.6501 153.905 32.7251 156.159 29.9951C158.455 27.2651 160.904 25.0551 163.504 23.3651C166.104 21.6317 168.855 20.7651 171.759 20.7651C173.709 20.7651 175.507 21.1767 177.154 22.0001C178.8 22.7801 180.122 23.9284 181.119 25.4451C182.159 26.9184 182.679 28.7384 182.679 30.9051C182.679 33.8517 181.899 36.5168 180.339 38.9001L182.289 38.7701H185.799C186.622 38.7701 187.272 39.2684 187.749 40.2651C188.269 41.2184 188.529 42.2801 188.529 43.4501C188.529 44.5767 188.29 45.6168 187.814 46.5701C187.337 47.5234 186.665 48.0001 185.799 48.0001H159.344C158.954 48.0001 158.542 48.0001 158.109 48.0001C157.719 48.0001 157.329 48.0001 156.939 48.0001C149.789 48.0001 144.524 46.3101 141.144 42.9301C139.93 44.5334 138.63 45.7901 137.244 46.7001C135.857 47.5667 134.08 48.0001 131.914 48.0001C130.354 48.0001 129.205 47.5017 128.469 46.5051C127.689 45.5084 127.299 44.4468 127.299 43.3201C127.299 42.1934 127.689 41.1534 128.469 40.2001C129.249 39.2467 130.397 38.7701 131.914 38.7701C133.387 38.7701 134.687 38.7268 135.814 38.6401C136.94 38.5534 137.959 38.1634 138.869 37.4701C139.822 36.7334 140.732 35.4334 141.599 33.5701L143.029 33.2451C143.029 34.5451 143.375 35.5634 144.069 36.3001C144.762 37.0367 145.629 37.5784 146.669 37.9251C147.752 38.2717 148.814 38.5534 149.854 38.7701ZM154.859 39.4201C156.419 39.5934 158.26 39.5934 160.384 39.4201C162.507 39.2034 164.674 38.8567 166.884 38.3801C169.094 37.9034 171.152 37.2751 173.059 36.4951C174.965 35.7151 176.46 34.8267 177.544 33.8301C176.937 32.0967 175.94 30.8401 174.554 30.0601C173.21 29.2367 171.715 28.8251 170.069 28.8251C168.032 28.8251 166.104 29.3017 164.284 30.2551C162.507 31.2084 160.839 32.4867 159.279 34.0901C157.762 35.6934 156.289 37.4701 154.859 39.4201Z"/>
<path d="M201.076 18.2301C202.462 19.9201 203.589 21.8267 204.456 23.9501C205.322 26.0301 205.951 28.1317 206.341 30.2551C206.731 32.3351 206.926 34.2634 206.926 36.0401C206.926 38.3368 206.557 40.1784 205.821 41.5651C205.127 42.9517 203.892 44.1217 202.116 45.0751C200.339 46.0284 198.454 46.7217 196.461 47.1551C194.511 47.5451 192.604 47.7834 190.741 47.8701C188.877 47.9567 187.252 48.0001 185.866 48.0001C184.566 48.0001 183.504 47.5234 182.681 46.5701C181.814 45.5734 181.381 44.4901 181.381 43.3201C181.381 42.1934 181.814 41.1534 182.681 40.2001C183.504 39.2467 184.566 38.7701 185.866 38.7701C187.902 38.7701 190.026 38.7268 192.236 38.6401C194.446 38.5534 196.504 38.4017 198.411 38.1851C200.317 37.9684 201.812 37.6651 202.896 37.2751C202.896 36.2784 202.614 35.1734 202.051 33.9601C201.487 32.7467 200.751 31.5551 199.841 30.3851C198.974 29.2151 198.042 28.2617 197.046 27.5251L200.166 18.2301H201.076ZM203.416 13.7451C202.592 12.7917 201.747 11.9034 200.881 11.0801C200.014 10.2134 199.104 9.36841 198.151 8.54508V8.09008L203.351 2.89008H203.806C204.716 3.67008 205.604 4.47175 206.471 5.29508C207.337 6.11842 208.182 7.02841 209.006 8.02508V8.48008L203.871 13.7451H203.416ZM191.781 13.9401C190.957 12.9867 190.112 12.0984 189.246 11.2751C188.379 10.4084 187.469 9.56341 186.516 8.74008V8.28508L191.716 3.08508H192.171C193.081 3.86508 193.969 4.66675 194.836 5.49008C195.702 6.31341 196.547 7.22341 197.371 8.22008V8.67508L192.236 13.9401H191.781Z"/>
<path d="M219.409 1.78508C219.495 2.60841 219.604 3.77841 219.734 5.29508C219.907 6.81175 220.102 8.65341 220.319 10.8201C220.579 13.4634 220.86 16.2584 221.164 19.2051C221.467 22.1084 221.727 24.9034 221.944 27.5901C222.204 30.2767 222.399 32.6384 222.529 34.6751C222.702 36.7117 222.789 38.1851 222.789 39.0951C222.789 41.3051 222.572 43.2767 222.139 45.0101C221.749 46.7434 221.12 48.6284 220.254 50.6651L218.499 50.0801L212.649 8.15508L218.694 1.33008L219.409 1.78508Z"/>
</mask>
<path d="M17.6903 48.0001C16.5203 48.0001 15.3937 47.7617 14.3103 47.2851C13.227 46.7651 12.2737 45.8334 11.4503 44.4901C10.6703 43.1467 10.0637 41.2401 9.63032 38.7701C9.54366 38.2934 9.45699 37.7734 9.37032 37.2101C9.28366 36.6467 9.15366 35.8234 8.98032 34.7401C8.80699 33.6134 8.56866 32.0101 8.26532 29.9301C7.96199 27.8067 7.55032 24.9901 7.03032 21.4801C6.51032 17.9701 5.86032 13.5284 5.08032 8.15508L11.1253 1.33008L11.9053 1.65508C12.252 5.85841 12.577 9.88841 12.8803 13.7451C13.1837 17.5584 13.4653 21.0251 13.7253 24.1451C13.9853 27.2217 14.2237 29.8434 14.4403 32.0101C14.657 34.1334 14.852 35.6068 15.0253 36.4301C15.242 37.5568 15.502 38.2284 15.8053 38.4451C16.1087 38.6618 16.4987 38.7268 16.9753 38.6401C17.4953 38.5101 18.1237 38.5534 18.8603 38.7701C19.727 38.9867 20.377 39.4417 20.8103 40.1351C21.2437 40.7851 21.4603 41.9334 21.4603 43.5801C21.4603 45.1834 21.2003 46.3318 20.6803 47.0251C20.1603 47.6751 19.1637 48.0001 17.6903 48.0001Z" stroke="white" stroke-width="2" shape-rendering="crispEdges" mask="url(#path-1-outside-1_424_22)"/>
<path d="M29.5853 33.8951C29.5853 31.6417 30.0187 29.6051 30.8853 27.7851C31.752 25.9651 32.6187 24.6217 33.4853 23.7551L34.6553 24.1451C34.4387 26.9184 34.6337 29.4101 35.2403 31.6201C35.8903 33.8301 36.9737 35.5851 38.4903 36.8851C40.0503 38.1417 42.087 38.7701 44.6003 38.7701H44.9253C45.792 38.7701 46.507 39.1167 47.0703 39.8101C47.6337 40.5034 47.9153 41.3484 47.9153 42.3451V44.2951C47.9153 45.3784 47.6337 46.2667 47.0703 46.9601C46.507 47.6534 45.792 48.0001 44.9253 48.0001H43.3003C41.307 48.0001 39.422 47.5884 37.6453 46.7651C35.912 45.8984 34.417 44.7501 33.1603 43.3201C31.687 45.2701 29.6937 46.5484 27.1803 47.1551C24.667 47.7184 21.8937 48.0001 18.8603 48.0001C17.387 48.0001 16.2603 47.5234 15.4803 46.5701C14.7003 45.6168 14.3103 44.5767 14.3103 43.4501C14.267 42.2801 14.6353 41.2184 15.4153 40.2651C16.152 39.2684 17.3003 38.7701 18.8603 38.7701C20.8103 38.7701 22.782 38.7268 24.7753 38.6401C26.812 38.5101 28.5887 38.2067 30.1053 37.7301C29.7587 36.4734 29.5853 35.1951 29.5853 33.8951ZM29.3253 18.1001C28.502 17.1467 27.657 16.2584 26.7903 15.4351C25.9237 14.5684 25.0137 13.7234 24.0603 12.9001V12.4451L29.2603 7.24508H29.7153C30.6253 8.02508 31.5137 8.82675 32.3803 9.65008C33.247 10.4734 34.092 11.3834 34.9153 12.3801V12.8351L29.7803 18.1001H29.3253Z" stroke="white" stroke-width="2" shape-rendering="crispEdges" mask="url(#path-1-outside-1_424_22)"/>
<path d="M60.475 18.2301C61.8617 19.9201 62.9884 21.8267 63.855 23.9501C64.7217 26.0301 65.35 28.1317 65.74 30.2551C66.13 32.3351 66.3251 34.2634 66.3251 36.0401C66.3251 38.3368 65.9567 40.1784 65.2201 41.5651C64.5267 42.9517 63.2917 44.1217 61.515 45.0751C59.7384 46.0284 57.8534 46.7217 55.86 47.1551C53.91 47.5451 52.0034 47.7834 50.14 47.8701C48.2767 47.9567 46.6517 48.0001 45.265 48.0001C43.965 48.0001 42.9034 47.5234 42.08 46.5701C41.2134 45.5734 40.78 44.4901 40.78 43.3201C40.78 42.1934 41.2134 41.1534 42.08 40.2001C42.9034 39.2467 43.965 38.7701 45.265 38.7701C47.3017 38.7701 49.425 38.7268 51.635 38.6401C53.845 38.5534 55.9034 38.4017 57.81 38.1851C59.7167 37.9684 61.2117 37.6651 62.295 37.2751C62.295 36.2784 62.0134 35.1734 61.45 33.9601C60.8867 32.7467 60.15 31.5551 59.24 30.3851C58.3734 29.2151 57.4417 28.2617 56.445 27.5251L59.565 18.2301H60.475ZM55.795 63.3401C54.9717 62.3868 54.1267 61.4768 53.26 60.6101C52.3934 59.7868 51.4834 58.9634 50.53 58.1401V57.6851L55.73 52.4851H56.185C57.095 53.2651 57.9834 54.0667 58.85 54.8901C59.7167 55.7134 60.5617 56.6234 61.385 57.6201V58.0751L56.25 63.3401H55.795Z" stroke="white" stroke-width="2" shape-rendering="crispEdges" mask="url(#path-1-outside-1_424_22)"/>
<path d="M131.818 38.7701C132.684 38.7701 133.334 39.2467 133.768 40.2001C134.201 41.1101 134.418 42.1284 134.418 43.2551C134.418 44.4684 134.201 45.5734 133.768 46.5701C133.378 47.5234 132.728 48.0001 131.818 48.0001C130.864 48.0001 129.933 47.9134 129.023 47.7401C128.156 47.5234 127.354 47.1767 126.618 46.7001C126.488 47.9134 126.293 48.9967 126.033 49.9501C125.816 50.9467 125.534 51.8134 125.188 52.5501C122.371 55.7568 119.316 58.0751 116.023 59.5051C112.729 60.9784 109.544 61.7151 106.468 61.7151C103.088 61.7151 100.163 61.0434 97.6926 59.7001C95.266 58.4001 93.381 56.6234 92.0376 54.3701C90.6943 52.1168 90.0226 49.5601 90.0226 46.7001C90.0226 43.3201 91.0193 39.8318 93.0126 36.2351L94.5726 36.7551C93.9226 39.9617 94.096 42.8651 95.0926 45.4651C96.1326 48.0651 97.8443 50.1017 100.228 51.5751C102.654 53.0917 105.558 53.8501 108.938 53.8501C111.364 53.8501 113.834 53.3518 116.348 52.3551C118.861 51.4018 121.244 49.9067 123.498 47.8701C123.411 46.6134 123.281 45.2267 123.108 43.7101C122.978 42.1501 122.804 40.5034 122.588 38.7701C122.458 37.5567 122.263 35.8451 122.003 33.6351C121.743 31.4251 121.418 28.9117 121.028 26.0951C120.638 23.2784 120.183 20.3317 119.663 17.2551C119.186 14.1784 118.644 11.1451 118.038 8.15508L124.083 1.33008L124.798 1.78508C125.274 6.03175 125.686 10.1051 126.033 14.0051C126.379 17.8617 126.683 21.3501 126.943 24.4701C127.203 27.5901 127.398 30.2117 127.528 32.3351C127.701 34.4151 127.831 35.8017 127.918 36.4951C128.134 37.5351 128.524 38.1851 129.088 38.4451C129.694 38.6618 130.604 38.7701 131.818 38.7701Z" stroke="white" stroke-width="2" shape-rendering="crispEdges" mask="url(#path-1-outside-1_424_22)"/>
<path d="M149.854 38.7701C151.804 35.6501 153.905 32.7251 156.159 29.9951C158.455 27.2651 160.904 25.0551 163.504 23.3651C166.104 21.6317 168.855 20.7651 171.759 20.7651C173.709 20.7651 175.507 21.1767 177.154 22.0001C178.8 22.7801 180.122 23.9284 181.119 25.4451C182.159 26.9184 182.679 28.7384 182.679 30.9051C182.679 33.8517 181.899 36.5168 180.339 38.9001L182.289 38.7701H185.799C186.622 38.7701 187.272 39.2684 187.749 40.2651C188.269 41.2184 188.529 42.2801 188.529 43.4501C188.529 44.5767 188.29 45.6168 187.814 46.5701C187.337 47.5234 186.665 48.0001 185.799 48.0001H159.344C158.954 48.0001 158.542 48.0001 158.109 48.0001C157.719 48.0001 157.329 48.0001 156.939 48.0001C149.789 48.0001 144.524 46.3101 141.144 42.9301C139.93 44.5334 138.63 45.7901 137.244 46.7001C135.857 47.5667 134.08 48.0001 131.914 48.0001C130.354 48.0001 129.205 47.5017 128.469 46.5051C127.689 45.5084 127.299 44.4468 127.299 43.3201C127.299 42.1934 127.689 41.1534 128.469 40.2001C129.249 39.2467 130.397 38.7701 131.914 38.7701C133.387 38.7701 134.687 38.7268 135.814 38.6401C136.94 38.5534 137.959 38.1634 138.869 37.4701C139.822 36.7334 140.732 35.4334 141.599 33.5701L143.029 33.2451C143.029 34.5451 143.375 35.5634 144.069 36.3001C144.762 37.0367 145.629 37.5784 146.669 37.9251C147.752 38.2717 148.814 38.5534 149.854 38.7701ZM154.859 39.4201C156.419 39.5934 158.26 39.5934 160.384 39.4201C162.507 39.2034 164.674 38.8567 166.884 38.3801C169.094 37.9034 171.152 37.2751 173.059 36.4951C174.965 35.7151 176.46 34.8267 177.544 33.8301C176.937 32.0967 175.94 30.8401 174.554 30.0601C173.21 29.2367 171.715 28.8251 170.069 28.8251C168.032 28.8251 166.104 29.3017 164.284 30.2551C162.507 31.2084 160.839 32.4867 159.279 34.0901C157.762 35.6934 156.289 37.4701 154.859 39.4201Z" stroke="white" stroke-width="2" shape-rendering="crispEdges" mask="url(#path-1-outside-1_424_22)"/>
<path d="M201.076 18.2301C202.462 19.9201 203.589 21.8267 204.456 23.9501C205.322 26.0301 205.951 28.1317 206.341 30.2551C206.731 32.3351 206.926 34.2634 206.926 36.0401C206.926 38.3368 206.557 40.1784 205.821 41.5651C205.127 42.9517 203.892 44.1217 202.116 45.0751C200.339 46.0284 198.454 46.7217 196.461 47.1551C194.511 47.5451 192.604 47.7834 190.741 47.8701C188.877 47.9567 187.252 48.0001 185.866 48.0001C184.566 48.0001 183.504 47.5234 182.681 46.5701C181.814 45.5734 181.381 44.4901 181.381 43.3201C181.381 42.1934 181.814 41.1534 182.681 40.2001C183.504 39.2467 184.566 38.7701 185.866 38.7701C187.902 38.7701 190.026 38.7268 192.236 38.6401C194.446 38.5534 196.504 38.4017 198.411 38.1851C200.317 37.9684 201.812 37.6651 202.896 37.2751C202.896 36.2784 202.614 35.1734 202.051 33.9601C201.487 32.7467 200.751 31.5551 199.841 30.3851C198.974 29.2151 198.042 28.2617 197.046 27.5251L200.166 18.2301H201.076ZM203.416 13.7451C202.592 12.7917 201.747 11.9034 200.881 11.0801C200.014 10.2134 199.104 9.36841 198.151 8.54508V8.09008L203.351 2.89008H203.806C204.716 3.67008 205.604 4.47175 206.471 5.29508C207.337 6.11842 208.182 7.02841 209.006 8.02508V8.48008L203.871 13.7451H203.416ZM191.781 13.9401C190.957 12.9867 190.112 12.0984 189.246 11.2751C188.379 10.4084 187.469 9.56341 186.516 8.74008V8.28508L191.716 3.08508H192.171C193.081 3.86508 193.969 4.66675 194.836 5.49008C195.702 6.31341 196.547 7.22341 197.371 8.22008V8.67508L192.236 13.9401H191.781Z" stroke="white" stroke-width="2" shape-rendering="crispEdges" mask="url(#path-1-outside-1_424_22)"/>
<path d="M219.409 1.78508C219.495 2.60841 219.604 3.77841 219.734 5.29508C219.907 6.81175 220.102 8.65341 220.319 10.8201C220.579 13.4634 220.86 16.2584 221.164 19.2051C221.467 22.1084 221.727 24.9034 221.944 27.5901C222.204 30.2767 222.399 32.6384 222.529 34.6751C222.702 36.7117 222.789 38.1851 222.789 39.0951C222.789 41.3051 222.572 43.2767 222.139 45.0101C221.749 46.7434 221.12 48.6284 220.254 50.6651L218.499 50.0801L212.649 8.15508L218.694 1.33008L219.409 1.78508Z" stroke="white" stroke-width="2" shape-rendering="crispEdges" mask="url(#path-1-outside-1_424_22)"/>
</g>
<defs>
<filter id="filter0_d_424_22" x="0.0240479" y="0.0283203" width="227.765" height="72.3115" filterUnits="userSpaceOnUse" color-interpolation-filters="sRGB">
<feFlood flood-opacity="0" result="BackgroundImageFix"/>
<feColorMatrix in="SourceAlpha" type="matrix" values="0 0 0 0 0 0 0 0 0 0 0 0 0 0 0 0 0 0 127 0" result="hardAlpha"/>
<feOffset dy="4"/>
<feGaussianBlur stdDeviation="2"/>
<feComposite in2="hardAlpha" operator="out"/>
<feColorMatrix type="matrix" values="0 0 0 0 1 0 0 0 0 1 0 0 0 0 1 0 0 0 0.25 0"/>
<feBlend mode="normal" in2="BackgroundImageFix" result="effect1_dropShadow_424_22"/>
<feBlend mode="normal" in="SourceGraphic" in2="effect1_dropShadow_424_22" result="shape"/>
</filter>
</defs>
</svg>
